<svg width="14" height="15" viewBox="0 0 14 15" fill="none" xmlns="http://www.w3.org/2000/svg">
<path d="M4.50094 8.35395L1.31424 6.05154C1.18367 5.9572 1.15429 5.77488 1.24863 5.64431C1.30347 5.56841 1.39141 5.52346 1.48505 5.52346H5.4425L6.72346 1.68537C6.77445 1.53257 6.93966 1.45005 7.09246 1.50104C7.17944 1.53007 7.24771 1.59832 7.27676 1.68529L8.55892 5.52346H12.5149C12.676 5.52346 12.8066 5.65404 12.8066 5.81512C12.8066 5.90876 12.7617 5.9967 12.6858 6.05154L9.49905 8.35395L10.7972 12.2483C10.8481 12.4011 10.7655 12.5662 10.6127 12.6172C10.5236 12.6469 10.4258 12.6319 10.3497 12.5769L7.00125 10.1586L3.6501 12.5774C3.51948 12.6717 3.33717 12.6422 3.2429 12.5116C3.18799 12.4355 3.17303 12.3377 3.2027 12.2487L4.50094 8.35395Z" fill="#FAD000"/>
</svg>
