<svg width="40" height="36" viewBox="0 0 40 36" fill="none" xmlns="http://www.w3.org/2000/svg">
<path d="M32.5865 29.402C31.8884 28.6289 31.2963 27.7661 30.8258 26.8367C30.0825 25.3798 29.0551 24.0865 27.8042 23.0329C26.5533 21.9793 25.1042 21.1866 23.5423 20.7017C22.1764 20.2794 20.7471 20.1002 19.3193 20.1722C20.3586 20.1128 21.3818 20.4483 22.184 21.1116C22.9863 21.7748 23.5083 22.7167 23.6454 23.7486C24.0211 25.9781 25.0093 28.0593 26.4995 29.7596C27.9897 31.46 29.9234 32.7125 32.0844 33.3774C34.5555 34.1368 37.2034 34.0959 39.6499 33.2604C36.9248 32.816 34.433 31.4549 32.5865 29.402Z" fill="#414042"/>
<path d="M14.952 20.3098C15.2695 21.7048 15.8281 23.0338 16.6026 24.2369C16.0371 23.3633 15.8194 22.3095 15.9926 21.2834C16.1657 20.2572 16.7171 19.3331 17.538 18.6935C19.2814 17.2514 20.5903 15.3536 21.3189 13.2115C22.0475 11.0695 22.1672 8.76724 21.6646 6.56121C21.0909 4.03757 19.7302 1.7616 17.7787 0.0617676C18.7503 2.65886 18.8061 5.50988 17.9369 8.14309C17.6042 9.13719 17.1416 10.083 16.5614 10.9561C15.6704 12.3276 15.0635 13.8638 14.7764 15.474C14.4893 17.0841 14.528 18.7355 14.8901 20.3304L14.952 20.3098Z" fill="#414042"/>
<path d="M21.5204 24.5189C21.0525 25.4492 20.2502 26.1683 19.2744 26.5318C18.2986 26.8953 17.2215 26.8765 16.2589 26.4791C14.1378 25.6841 11.8373 25.4947 9.6147 25.932C7.39203 26.3692 5.33477 27.4159 3.67277 28.9551C1.77775 30.7179 0.491619 33.0372 0 35.5783C1.76338 33.4378 4.20407 31.9627 6.91898 31.3966C7.93895 31.1879 8.98092 31.107 10.0208 31.1559C11.652 31.2404 13.2836 30.9973 14.8192 30.441C16.3548 29.8846 17.7634 29.0262 18.9619 27.9165C20.0107 26.9425 20.8812 25.7927 21.5341 24.5189H21.5204Z" fill="#414042"/>
</svg>
