<svg width="26" height="24" viewBox="0 0 26 24" fill="none" xmlns="http://www.w3.org/2000/svg">
<path d="M24.4516 9.68085L3.47282 0.97535C3.0422 0.796695 2.57033 0.74147 2.11009 0.81586C1.64985 0.890251 1.21941 1.09132 0.867 1.39654C0.514586 1.70176 0.254116 2.09908 0.11477 2.54398C-0.0245762 2.98888 -0.0372943 3.46379 0.0780406 3.91552L1.94546 11.238H11.0876C11.2897 11.238 11.4834 11.3183 11.6263 11.4611C11.7692 11.604 11.8494 11.7978 11.8494 11.9998C11.8494 12.2019 11.7692 12.3956 11.6263 12.5385C11.4834 12.6814 11.2897 12.7616 11.0876 12.7616H1.94546L0.0781903 20.084C-0.0369597 20.5356 -0.024112 21.0104 0.115295 21.4552C0.254702 21.9 0.515164 22.2972 0.867519 22.6023C1.21987 22.9075 1.65021 23.1085 2.11034 23.1829C2.57048 23.2573 3.04225 23.2022 3.47282 23.0237L24.4516 14.3189C24.91 14.1287 25.3018 13.8069 25.5774 13.3942C25.853 12.9814 26.0001 12.4962 26.0001 11.9999C26.0001 11.5036 25.853 11.0184 25.5774 10.6056C25.3018 10.1929 24.91 9.87105 24.4516 9.68085Z" fill="#C2D1E2"/>
</svg>
